# xmcd CD database file
#
# Track frame offsets:
#	150
#	11394
#	27514
#	44249
#	62354
#	78895
#	89570
#	103850
#	120588
#	131955
#	145562
#	161492
#
# Disc length: 2309 seconds
#
# Revision: 0
# Processed by: cddbd v1.5.2PL0 Copyright (c) Steve Scherf et al.
# Submitted via: Feurio! 1.68 - http://www.feurio.com
#
DISCID=9d09030c
DTITLE=Sarah Johns - Pre-Release EMI 2011
DYEAR=1900
DGENRE=Country
TTITLE0=a man like you
TTITLE1=stoned
TTITLE2=usin me up
TTITLE3=loserville
TTITLE4=you
TTITLE5=you're hurting me
TTITLE6=born for that
TTITLE7=touch me
TTITLE8=keep doin' your thang
TTITLE9=radio
TTITLE10=fall with me
TTITLE11=what made milwaukee famous
EXTD=
EXTT0=
EXTT1=
EXTT2=
EXTT3=
EXTT4=
EXTT5=
EXTT6=
EXTT7=
EXTT8=
EXTT9=
EXTT10=
EXTT11=
PLAYORDER=
